<?xml version="1.0" encoding="utf-8"?>
<!-- Generator: Adobe Illustrator 19.0.0, SVG Export Plug-In . SVG Version: 6.00 Build 0)  -->
<svg version="1.1" id="Layer_1" xmlns="http://www.w3.org/2000/svg" xmlns:xlink="http://www.w3.org/1999/xlink" x="0px" y="0px"
	 viewBox="0 0 380 140" style="enable-background:new 0 0 380 140;" xml:space="preserve">
<style type="text/css">
	.st0{fill:#FFFFFF;}
</style>
<g id="XMLID_1_">
	<g id="XMLID_205_">
		<path id="XMLID_209_" d="M18.7,23.2c-2.3,16.8-7.6,32.9-16.4,47.5C2,71,2.6,71.4,2.9,71c8.9-14.6,14.2-30.8,16.5-47.6
			C19.4,22.9,18.7,22.7,18.7,23.2L18.7,23.2z"/>
	</g>
</g>
<g id="XMLID_2_">
	<g id="XMLID_173_">
		<path id="XMLID_203_" d="M33.2,26.7c-3.7,9-13.3,17.9-22.6,20.5c-0.2,0.1-0.3,0.3-0.2,0.6c3.9,6.9,7.4,15.3,13.9,20.2
			c4.9,3.7,12.8,5.1,15.9-1.4c0.2-0.4-0.4-0.8-0.6-0.4c-3.2,6.7-11.5,4.2-15.9,0.3c-2.6-2.3-4.6-5.2-6.4-8.1
			c-1.6-2.6-3.3-5.4-4.6-8.1c-1.4-3,0.2-2.7,2.6-3.9C23,42.3,30.6,35,33.9,26.9C34.1,26.4,33.4,26.2,33.2,26.7L33.2,26.7z"/>
	</g>
</g>
<g id="XMLID_4_">
	<g id="XMLID_166_">
		<path id="XMLID_171_" d="M57.5,64.3c5.1-3,7-8.9,9-14.2c3-8.2,5.5-16.6,7.5-25.2c0-0.2-0.1-0.4-0.3-0.5c-3.1-0.8-5.7,9.6-6.4,11.5
			c-2.8,7.7-4.8,15.9-4.7,24.1c0.1,3.7,0.1,9.9,4.7,10.9c5.1,1.2,8.7-4.4,9.9-8.4c0.1-0.5-0.6-0.7-0.7-0.2c-1.5,5.2-9.5,13-12.6,3.2
			c-1.1-3.5-0.6-8.3-0.2-11.9c0.9-8.4,3.7-16.5,7-24.2c0.4-1,1.8-5.1,2-2.1c0.1,1.6-0.9,3.7-1.4,5.3c-1,3.5-2,7-3.1,10.4
			c-2.2,6.8-4.4,16.7-11,20.5C56.7,63.9,57.1,64.5,57.5,64.3L57.5,64.3z"/>
	</g>
</g>
<g id="XMLID_5_">
	<g id="XMLID_159_">
		<path id="XMLID_164_" d="M87.8,56.5c-2.8,0.7-5.2,2.3-7,4.6c-1.6,2-3.5,5.6-2.5,8.3c0.7,2,2.5,2.2,4.2,1.1c2.9-1.9,4.6-6,5.6-9
			c-0.2,0-0.5,0-0.7,0c0.6,1.9-0.7,6.1,1.3,7.6c2,1.4,3.6-1.6,4.3-3c0.2-0.4-0.4-0.8-0.6-0.4c-0.3,0.7-1,2.2-1.6,2.5
			c-2.6,1.3-2.3-2.2-2.3-3.1c0-1.3,0.1-2.5-0.3-3.7c-0.1-0.4-0.6-0.3-0.7,0c-0.7,2.1-1.6,4.1-2.9,5.9c-0.6,0.9-3.9,5.6-5.5,1.7
			c-0.4-0.9,0-2.3,0.3-3.2c1.2-4.1,4.6-7.5,8.8-8.4C88.5,57.1,88.3,56.4,87.8,56.5L87.8,56.5z"/>
	</g>
</g>
<g id="XMLID_7_">
	<g id="XMLID_151_">
		<path id="XMLID_156_" d="M125.9,56.5c-2.8,0.7-5.2,2.3-7,4.6c-1.6,2-3.5,5.6-2.5,8.3c0.7,2,2.5,2.2,4.2,1.1c2.9-1.9,4.6-6,5.6-9
			c-0.2,0-0.5,0-0.7,0c0.6,2-0.9,6.1,1.2,7.5c2,1.3,3.7-1.5,4.4-3c0.2-0.4-0.4-0.8-0.6-0.4c-0.2,0.5-0.5,1-0.8,1.4
			c-0.6,1.2-1.6,1.3-3.1,0.2c-0.3-0.6-0.1-1.9,0-2.5c0.1-1.2,0.1-2.3-0.2-3.5c-0.1-0.4-0.6-0.3-0.7,0c-0.7,2.1-1.6,4.1-2.9,5.9
			c-0.6,0.9-3.9,5.6-5.5,1.7c-0.4-0.9,0-2.3,0.3-3.2c1.2-4.1,4.6-7.5,8.8-8.4C126.6,57.1,126.4,56.4,125.9,56.5L125.9,56.5z"/>
	</g>
</g>
<g id="XMLID_32_">
	<g id="XMLID_144_">
		<path id="XMLID_148_" d="M201.3,56.5c-2.8,0.7-5.2,2.3-7,4.6c-1.6,2-3.5,5.6-2.5,8.3c0.7,2,2.5,2.2,4.2,1.1c2.9-1.9,4.6-6,5.6-9
			c-0.2,0-0.5,0-0.7,0c0.6,2-0.9,6.1,1.2,7.5c2,1.3,3.7-1.5,4.4-3c0.2-0.4-0.4-0.8-0.6-0.4c-0.2,0.5-0.5,1-0.8,1.4
			c-0.6,1.2-1.6,1.3-3.1,0.2c-0.3-0.6-0.1-1.9,0-2.5c0.1-1.2,0.1-2.3-0.2-3.5c-0.1-0.4-0.6-0.3-0.7,0c-0.7,2.1-1.6,4.1-2.9,5.9
			c-0.6,0.9-3.9,5.6-5.5,1.7c-0.4-0.9,0-2.3,0.3-3.2c1.2-4.1,4.6-7.5,8.8-8.4C202,57.1,201.8,56.4,201.3,56.5L201.3,56.5z"/>
	</g>
</g>
<g id="XMLID_8_">
	<g id="XMLID_138_">
		<path id="XMLID_142_" d="M294.5,75.1c-3.4,0.8-6.2,2.8-8.2,5.6c-1.9,2.5-4.1,6.9-2.9,10.2c0.8,2.4,2.8,2.7,4.8,1.3
			c3.4-2.3,5.4-7.4,6.6-11.1c-0.2,0-0.5,0-0.7,0c0.7,2.4-1.1,7.6,1.4,9.2c2.4,1.6,4.3-2,5.1-3.6c0.2-0.4-0.4-0.8-0.6-0.4
			c-0.4,0.9-2.9,6.1-4.8,2c-0.3-0.7-0.1-2.3,0-3.1c0.1-1.5,0.1-2.9-0.3-4.3c-0.1-0.4-0.6-0.3-0.7,0c-0.8,2.6-1.9,5.1-3.4,7.3
			c-0.7,1.1-4.6,7-6.7,2.1c-0.5-1.1,0-2.9,0.3-4c1.5-5,5.3-9.3,10.4-10.5C295.2,75.7,295,75,294.5,75.1L294.5,75.1z"/>
	</g>
</g>
<g id="XMLID_19_">
	<g id="XMLID_131_">
		<path id="XMLID_135_" d="M51.5,56.5c-2.8,0.7-5.2,2.3-7,4.6c-1.6,2-3.5,5.6-2.5,8.3c0.7,2,2.5,2.2,4.2,1.1c2.9-1.9,4.6-6,5.6-9
			c-0.2,0-0.5,0-0.7,0c0.6,2-0.9,6.1,1.2,7.5c2,1.3,3.7-1.5,4.4-3c0.2-0.4-0.4-0.8-0.6-0.4c-0.2,0.5-0.5,1-0.8,1.4
			c-0.6,1.2-1.6,1.3-3.1,0.2c-0.3-0.6-0.1-1.9,0-2.5c0.1-1.2,0.1-2.3-0.2-3.5c-0.1-0.4-0.6-0.3-0.7,0c-0.7,2.1-1.6,4.1-2.9,5.9
			c-0.6,0.9-3.9,5.6-5.5,1.7c-0.4-0.9,0-2.3,0.3-3.2c1.2-4.1,4.6-7.5,8.8-8.4C52.2,57.1,52,56.4,51.5,56.5L51.5,56.5z"/>
	</g>
</g>
<g id="XMLID_6_">
	<g id="XMLID_125_">
		<path id="XMLID_129_" d="M95.5,58.3c0.4,1.6,0.6,3.3,0.7,4.9c0,0.5-0.4,3,0,3.3c-0.8-0.7,3.4-6.2,4-6.6c4.3-2.6,3.6,3.4,3.8,5.6
			c0.1,0.4,0.6,0.5,0.7,0.1c0.8-2,1.9-4,3.3-5.5c2-2.2,5.5-2.6,5.8,1c0.3,3.1-0.7,7.2-2.9,9.4c-0.3,0.3,0.2,0.9,0.5,0.5
			c2.4-2.4,5-10,2.2-12.9c-3.9-4.1-8.6,4.8-9.7,7.3c0.2,0,0.5,0.1,0.7,0.1c-0.3-2.2,0.6-7.2-3.3-7c-3.1,0.2-7.7,7.5-5.5,10
			c0.2,0.2,0.6,0.1,0.6-0.2c0.5-3.5,0.4-6.9-0.3-10.3C96.1,57.6,95.3,57.8,95.5,58.3L95.5,58.3z"/>
	</g>
</g>
<g id="XMLID_9_">
	<g id="XMLID_116_">
		<path id="XMLID_123_" d="M132.4,60c0,3,0,6,0,9.1c0,0.4,0.6,0.5,0.7,0.1c0.6-1.7,4-11.9,7.2-9c1.2,1.1,1,3.6,0.9,5
			c-0.1,1.8-0.4,3.6-0.9,5.4c-0.1,0.5,0.6,0.7,0.7,0.2c0.8-2.4,1.2-5.1,0.9-7.7c-0.1-1.3-0.4-3.3-1.8-3.9c-4.2-1.8-6.9,7.4-7.8,9.8
			c0.2,0,0.5,0.1,0.7,0.1c0-3,0-6,0-9.1C133.1,59.5,132.4,59.5,132.4,60L132.4,60z"/>
	</g>
</g>
<g id="XMLID_11_">
	<g id="XMLID_109_">
		<path id="XMLID_114_" d="M151.9,58.1c-3.2,1.1-6.8,4.1-8,7.3c-0.6,1.7-0.5,5,2,5c3,0,5.8-5.7,6.7-7.8c2.8-6.1,4.5-13,6.5-19.4
			c0.2-0.7,3.7-11.1,1.9-10.7c-1.2,0.3-2.2,6.7-2.4,7.6c-1.4,5.1-2.8,10.2-3.9,15.3c-1,4.2-2.3,9.7,0.4,13.5c2.2,3.2,6,2.7,7-1.1
			c0.1-0.5-0.6-0.7-0.7-0.2c-2.2-0.3-4.4-0.6-6.5-0.9c-0.3-1.2-0.5-2.4-0.5-3.6c0-1.1,0-2.1,0.2-3.2c0.2-1.1,0.4-2.3,0.7-3.4
			c0.7-3.2,1.5-6.4,2.3-9.6c0.9-3.3,1.8-6.7,2.7-10c0.3-1.1,1.5-5.5,0.5-2.6c-2.2,6.4-3.8,13.1-5.9,19.6c-1.4,4.3-2.6,8.7-5.3,12.4
			c-1.4,1.9-1.5,2.6-3.6,1.6c-1.7-0.1-2.1-0.7-1.2-2c0.3-1.2,0.8-2.2,1.7-3c1.5-1.8,3.5-3.4,5.7-4.2C152.6,58.7,152.4,58,151.9,58.1
			L151.9,58.1z"/>
	</g>
</g>
<g id="XMLID_18_">
	<g id="XMLID_102_">
		<path id="XMLID_107_" d="M173.4,60.7c-5.3-2.3-11.3,2.8-10,8.6c0.4,1.9,1.7,2.2,3.4,1.5c2.6-1.2,4.2-3.7,5-6.4
			c-0.2,0-0.5-0.1-0.7-0.1c-0.1,4.6,5.1,7,7.2,2.2c0.2-0.4-0.5-0.8-0.6-0.4c-0.5,1.8-2.1,2.3-4.6,1.6c-0.9-1-1.3-2.1-1.1-3.5
			c0-0.4-0.6-0.5-0.7-0.1c-0.4,1.5-1.1,2.9-2.1,4c-1.3,1.5-4.8,3.4-4.8-0.5c-0.1-4.6,4.6-8.2,8.9-6.3
			C173.5,61.6,173.9,60.9,173.4,60.7L173.4,60.7z"/>
	</g>
</g>
<g id="XMLID_25_">
	<g id="XMLID_96_">
		<path id="XMLID_100_" d="M177.5,68c4.1-7,7.2-14.7,9.7-22.4c0.9-2.7,4.3-10.2,1.9-12.9c-0.1-0.1-0.3-0.1-0.5-0.1
			c-2.3,1.2-3.2,5.2-3.9,7.4c-1.7,5.2-3,10.7-3.6,16.2c-0.4,4-1,10.8,3.6,12.9c2.7,1.2,5-0.6,5.7-3.2c0.1-0.5-0.6-0.7-0.7-0.2
			c-4.6,2.7-7.1,2.1-7.7-1.8c-0.3-1.7-0.4-3.5-0.3-5.3c0.1-1.8,0.3-3.6,0.6-5.3c0.5-3.1,1.2-6.2,2-9.3c0.7-2.6,1.5-5.3,2.6-7.8
			c0.5-1,0.9-3.1,2-1.8c0.3,0.3-0.2,2.5-0.2,2.5c-1.5,10.5-6.6,21.6-11.9,30.7C176.6,68,177.2,68.4,177.5,68L177.5,68z"/>
	</g>
</g>
<g id="XMLID_39_">
	<g id="XMLID_90_">
		<path id="XMLID_94_" d="M208.7,58.3c-0.2,3.5-0.3,7.1-0.5,10.6c0,0.4,0.7,0.5,0.7,0.1c0.4-2,0.8-4,1.4-6c0.4-1.2,2.7-7.9,4.2-4.8
			c0.6,1.4,0.1,4.2,0.1,5.7c0,1.7-0.1,3.3-0.1,5c0,0.4,0.6,0.5,0.7,0.1c0.7-3.4,1.5-7.1,3.3-10.1c1.5-2.4,4.3-4.5,4.6-0.2
			c0.4,5.8-1.2,12-2.9,17.5c-0.1,0.5,0.6,0.7,0.7,0.2c1.4-4.6,2.4-9.3,2.8-14.1c0.1-1.5,0.8-5.9-1-7c-4.1-2.5-7.7,9.4-7.8,11.2
			c-0.1,1.2-0.1,2.7,0.2,0.7c0.1-0.8,0-1.6,0-2.4c0-2,0.1-4-0.1-5.9c-0.1-1.3,0-2.4-1.5-2.4c-2.2-0.1-3.4,3.9-3.9,5.4
			c-0.2,0.5-1.3,6.2-1.6,6.2c1.6-0.4,1-8.4,1.1-9.8C209.4,57.8,208.7,57.8,208.7,58.3L208.7,58.3z"/>
	</g>
</g>
<g id="XMLID_10_">
	<g id="XMLID_84_">
		<path id="XMLID_88_" d="M196.7,112.1c7.6-0.9,13.5-6.4,18.2-12.1c6.7-8.3,11.7-18,15.8-27.7c8.4-19.6,15.3-41.6,15.9-63.1
			c0-0.5-0.7-0.5-0.8,0c-1.9,38.1-3.6,76.2-5.3,114.3c0,0.5,0.7,0.5,0.8,0c0.9-19.3,1.7-38.6,2.6-57.9c0.4-9.8,0.9-19.6,1.4-29.4
			c0.2-4.6,0.4-9.2,0.7-13.8c0.1-2.2,0.2-4.5,0.3-6.7c0-1,0.2-2.2,0.2-3.3c0-0.5-0.1-3.7-0.7-1.6c-0.6,2.2-0.4,5-0.7,7.3
			c-0.4,3.3-1,6.5-1.6,9.8c-1.2,6.4-2.8,12.8-4.7,19.1c-3.9,13.4-8.9,26.7-15.7,39c-5.5,9.9-14,23.9-26.5,25.4
			C196.3,111.4,196.3,112.2,196.7,112.1L196.7,112.1z"/>
	</g>
</g>
<g id="XMLID_12_">
	<g id="XMLID_78_">
		<path id="XMLID_82_" d="M216.8,85.8c18-8.3,35.6-17.4,52.9-27.2c0.4-0.2,0-0.9-0.4-0.6c-17.2,9.8-34.9,18.9-52.9,27.2
			C215.9,85.3,216.3,86,216.8,85.8L216.8,85.8z"/>
	</g>
</g>
<g id="XMLID_103_">
	<g id="XMLID_72_">
		<path id="XMLID_76_" d="M257.2,79.1c-3.7-0.4-7.1,1.7-7,5.7c0,2,1.1,3.3,2.2,4.9c2.7,3.8,4.3,7.2,2,11.8c-1.2,2.4-3.2,4.2-5.1,6
			c-0.4,0.3,0.2,0.9,0.5,0.5c3.4-3.2,6.9-7,6.5-12c-0.2-2.3-1.2-3.7-2.3-5.6c-1.4-2.3-0.6-0.3-2-3.4c-1.9-4.1,0.5-7.6,5.3-7.1
			C257.7,79.9,257.7,79.1,257.2,79.1L257.2,79.1z"/>
	</g>
</g>
<g id="XMLID_110_">
	<g id="XMLID_66_">
		<path id="XMLID_70_" d="M260.2,87.9c-0.1,1.7-1.6,14.9,3.6,11.4c2.2-1.5,3.5-4.9,4.5-7.2c0.4-0.8,0.7-2.5,1.3-3.1
			c0.5-0.5-0.3-0.3,0.1,0.5c0.3,0.7,0.4,1.4,0.6,2.1c1.1,3.9,3.1,9.1,6.9,4c3.9-5.2,5.8-13.7,5.4-20.1c0-0.5-0.8-0.5-0.8,0
			c0.4,5.7-1.3,12.6-4,17.7c-0.8,1.5-1.5,3.1-3.4,3.3c-2.1,0.2-2.4-1.8-2.9-3.6c-0.5-1.7-0.8-3.5-1.6-5.1c-0.2-0.3-0.6-0.2-0.7,0.1
			c-0.8,2.6-2,5.3-3.4,7.6c-1,1.7-2.2,4.5-4.6,2c-1.5-1.5-0.2-7.6-0.2-9.8C261,87.5,260.2,87.5,260.2,87.9L260.2,87.9z"/>
	</g>
</g>
<g id="XMLID_117_">
	<g id="XMLID_60_">
		<path id="XMLID_64_" d="M301.2,84.6c6.6-2.9,9.8-13.9,12-20.1c1.5-4.2,2.8-8.6,3.4-13c0.2-1.7,0.8-4.7-0.7-6
			c-0.2-0.1-0.5-0.2-0.6,0.1c-2.9,6.6-5.3,13.4-6.6,20.5c-1,5.5-2.4,13.9,0.1,19.2c3.2,7.2,10-1.1,10.6-5.4c0.1-0.5-0.7-0.7-0.7-0.2
			c-0.4,2.6-1.4,5.4-3.9,6.7c-5.3,2.7-5.9-3.8-6.1-7.6c-0.3-5.7,0.4-11.4,1.7-16.9c0.5-2,5.4-15.1,5.4-15.2c1.1,1.2-0.1,5.5-0.3,6.7
			c-1.1,6.1-3.2,12.1-5.7,17.8c-1.8,4.2-4.4,10.7-8.9,12.7C300.4,84.1,300.8,84.8,301.2,84.6L301.2,84.6z"/>
	</g>
</g>
<g id="XMLID_118_">
	<g id="XMLID_54_">
		<path id="XMLID_58_" d="M300,66.5c7.9-3.1,15.5-6.8,22.8-11.1c0.4-0.2,0-0.9-0.4-0.6c-7.3,4.3-14.8,7.9-22.7,11
			C299.4,65.9,299.6,66.7,300,66.5L300,66.5z"/>
	</g>
</g>
<g id="XMLID_119_">
	<g id="XMLID_48_">
		<path id="XMLID_52_" d="M325.3,46.5c-0.1,6.4-0.5,12.8-1.3,19.2c-0.4,3.7-1.5,7.6-1.6,11.3c0,0.6-0.7,3.7,0.3,2.4
			c0.5-0.6,0.5-2.1,0.7-2.9c0.6-2.4,6.3-15.3,9.1-9c0.9,2.1-0.1,5.3,0.1,7.5c0.3,2.7,1.4,3.3,3.7,1.7c5.9-4.3,8.5-14.1,9.9-20.8
			c0.1-0.5-0.6-0.7-0.7-0.2c-0.7,3.3-1.6,6.5-2.9,9.7c-1.3,3.3-3.3,8.7-6.5,10.6c-4.6,2.7-1.8-6.7-3-9.1c-1-2.1-3.2-1.9-5-0.6
			c-4.2,2.9-5.6,10.1-6.4,14.7c-0.1,0.5,0.6,0.7,0.7,0.2c2.1-11.4,3.3-22.9,3.6-34.5C326.1,46,325.3,46,325.3,46.5L325.3,46.5z"/>
	</g>
</g>
<g id="XMLID_137_">
	<g id="XMLID_42_">
		<path id="XMLID_46_" d="M345.6,55.4c-2.5,3.1-4.9,6.4-6.1,10.2c-0.6,1.8-1,4.3,0.2,6c3,4,9.4-1.5,11.6-3.7
			c0.3-0.3-0.2-0.9-0.5-0.5c-1.8,1.8-8.6,7.7-10.8,3.2c-0.8-1.7-0.2-4,0.5-5.6c1.3-3.4,3.4-6.3,5.7-9.1
			C346.4,55.6,345.9,55,345.6,55.4L345.6,55.4z"/>
	</g>
</g>
<g id="XMLID_155_">
	<g id="XMLID_35_">
		<path id="XMLID_40_" d="M345.3,47.4c-0.4,1.1-0.9,3.7,0.8,4c1.6,0.3,2-2.4,2-3.5c0-0.5-0.7-0.5-0.8,0c0,0.6-0.3,3-1.2,2.7
			c-1-0.3-0.4-2.4-0.2-3C346.2,47.1,345.5,46.9,345.3,47.4L345.3,47.4z"/>
	</g>
</g>
<g id="XMLID_14_">
	<path id="XMLID_15_" class="st0" d="M254,120.1c-0.3,0.2-1,0.4-1.9,0.4c-2,0-3.4-1.4-3.4-3.5c0-2.1,1.4-3.6,3.6-3.6
		c0.7,0,1.4,0.2,1.7,0.4l-0.3,1c-0.3-0.2-0.8-0.3-1.4-0.3c-1.6,0-2.4,1.1-2.4,2.6c0,1.6,1,2.5,2.4,2.5c0.7,0,1.2-0.2,1.5-0.3
		L254,120.1z"/>
	<path id="XMLID_17_" class="st0" d="M258.1,110.4h1.2v9.9h-1.2V110.4z"/>
	<path id="XMLID_21_" class="st0" d="M267.7,120.4l-0.1-0.9h0c-0.4,0.5-1.1,1-2.1,1c-1.4,0-2.1-1-2.1-1.9c0-1.6,1.5-2.5,4.1-2.5
		v-0.1c0-0.6-0.2-1.6-1.5-1.6c-0.6,0-1.3,0.2-1.8,0.5l-0.3-0.8c0.6-0.4,1.4-0.6,2.2-0.6c2.1,0,2.6,1.4,2.6,2.8v2.5
		c0,0.6,0,1.2,0.1,1.6H267.7z M267.5,116.9c-1.3,0-2.9,0.2-2.9,1.5c0,0.8,0.5,1.2,1.2,1.2c0.9,0,1.4-0.6,1.6-1.1
		c0-0.1,0.1-0.3,0.1-0.4V116.9z"/>
	<path id="XMLID_157_" class="st0" d="M273.1,119.1c0.4,0.2,1,0.5,1.6,0.5c0.9,0,1.3-0.4,1.3-1c0-0.6-0.4-0.9-1.3-1.2
		c-1.2-0.4-1.8-1.1-1.8-1.9c0-1.1,0.9-2,2.3-2c0.7,0,1.3,0.2,1.7,0.4l-0.3,0.9c-0.3-0.2-0.8-0.4-1.4-0.4c-0.7,0-1.1,0.4-1.1,0.9
		c0,0.6,0.4,0.8,1.3,1.1c1.2,0.4,1.8,1,1.8,2c0,1.2-0.9,2-2.5,2c-0.7,0-1.4-0.2-1.9-0.5L273.1,119.1z"/>
	<path id="XMLID_169_" class="st0" d="M281.3,119.1c0.4,0.2,1,0.5,1.6,0.5c0.9,0,1.3-0.4,1.3-1c0-0.6-0.4-0.9-1.3-1.2
		c-1.2-0.4-1.8-1.1-1.8-1.9c0-1.1,0.9-2,2.3-2c0.7,0,1.3,0.2,1.7,0.4l-0.3,0.9c-0.3-0.2-0.8-0.4-1.4-0.4c-0.7,0-1.1,0.4-1.1,0.9
		c0,0.6,0.4,0.8,1.3,1.1c1.2,0.4,1.8,1,1.8,2c0,1.2-0.9,2-2.5,2c-0.7,0-1.4-0.2-1.9-0.5L281.3,119.1z"/>
	<path id="XMLID_176_" class="st0" d="M290.9,111.7c0,0.4-0.3,0.8-0.8,0.8c-0.4,0-0.7-0.3-0.7-0.8c0-0.4,0.3-0.8,0.8-0.8
		C290.6,110.9,290.9,111.3,290.9,111.7z M289.6,120.4v-6.8h1.2v6.8H289.6z"/>
	<path id="XMLID_179_" class="st0" d="M300.3,120.1c-0.3,0.2-1,0.4-1.9,0.4c-2,0-3.4-1.4-3.4-3.5c0-2.1,1.4-3.6,3.6-3.6
		c0.7,0,1.4,0.2,1.7,0.4l-0.3,1c-0.3-0.2-0.8-0.3-1.4-0.3c-1.6,0-2.4,1.1-2.4,2.6c0,1.6,1,2.5,2.4,2.5c0.7,0,1.2-0.2,1.5-0.3
		L300.3,120.1z"/>
	<path id="XMLID_181_" class="st0" d="M308.1,120.4l-0.1-0.9h0c-0.4,0.5-1.1,1-2.1,1c-1.4,0-2.1-1-2.1-1.9c0-1.6,1.5-2.5,4.1-2.5
		v-0.1c0-0.6-0.2-1.6-1.5-1.6c-0.6,0-1.3,0.2-1.8,0.5l-0.3-0.8c0.6-0.4,1.4-0.6,2.2-0.6c2.1,0,2.6,1.4,2.6,2.8v2.5
		c0,0.6,0,1.2,0.1,1.6H308.1z M307.9,116.9c-1.3,0-2.9,0.2-2.9,1.5c0,0.8,0.5,1.2,1.2,1.2c0.9,0,1.4-0.6,1.6-1.1
		c0-0.1,0.1-0.3,0.1-0.4V116.9z"/>
	<path id="XMLID_184_" class="st0" d="M313.6,110.4h1.2v9.9h-1.2V110.4z"/>
	<path id="XMLID_186_" class="st0" d="M330.9,110.4v8.2c0,0.6,0,1.3,0.1,1.8h-1.1l-0.1-1.2h0c-0.4,0.8-1.2,1.3-2.3,1.3
		c-1.6,0-2.9-1.4-2.9-3.4c0-2.3,1.4-3.6,3-3.6c1,0,1.7,0.5,2,1h0v-4H330.9z M329.7,116.4c0-0.2,0-0.4-0.1-0.5
		c-0.2-0.8-0.9-1.4-1.8-1.4c-1.3,0-2,1.1-2,2.6c0,1.4,0.7,2.5,2,2.5c0.8,0,1.6-0.5,1.8-1.5c0-0.2,0.1-0.3,0.1-0.5V116.4z"/>
	<path id="XMLID_189_" class="st0" d="M339.3,120.4l-0.1-0.9h0c-0.4,0.5-1.1,1-2.1,1c-1.4,0-2.1-1-2.1-1.9c0-1.6,1.5-2.5,4.1-2.5
		v-0.1c0-0.6-0.2-1.6-1.5-1.6c-0.6,0-1.3,0.2-1.8,0.5l-0.3-0.8c0.6-0.4,1.4-0.6,2.2-0.6c2.1,0,2.6,1.4,2.6,2.8v2.5
		c0,0.6,0,1.2,0.1,1.6H339.3z M339.1,116.9c-1.3,0-2.9,0.2-2.9,1.5c0,0.8,0.5,1.2,1.2,1.2c0.9,0,1.4-0.6,1.6-1.1
		c0-0.1,0.1-0.3,0.1-0.4V116.9z"/>
	<path id="XMLID_192_" class="st0" d="M344.9,115.4c0-0.7,0-1.3-0.1-1.8h1.1l0.1,1.1h0c0.3-0.6,1.1-1.3,2.2-1.3
		c0.9,0,2.4,0.6,2.4,2.9v4h-1.2v-3.9c0-1.1-0.4-2-1.6-2c-0.8,0-1.4,0.6-1.7,1.3c-0.1,0.2-0.1,0.4-0.1,0.6v4.1h-1.2V115.4z"/>
	<path id="XMLID_194_" class="st0" d="M360.1,120.1c-0.3,0.2-1,0.4-1.9,0.4c-2,0-3.4-1.4-3.4-3.5c0-2.1,1.4-3.6,3.6-3.6
		c0.7,0,1.4,0.2,1.7,0.4l-0.3,1c-0.3-0.2-0.8-0.3-1.4-0.3c-1.6,0-2.4,1.1-2.4,2.6c0,1.6,1,2.5,2.4,2.5c0.7,0,1.2-0.2,1.5-0.3
		L360.1,120.1z"/>
	<path id="XMLID_196_" class="st0" d="M364.7,117.2c0,1.7,1.1,2.4,2.3,2.4c0.9,0,1.4-0.2,1.9-0.4l0.2,0.9c-0.4,0.2-1.2,0.4-2.3,0.4
		c-2.1,0-3.3-1.4-3.3-3.4c0-2,1.2-3.7,3.2-3.7c2.2,0,2.8,1.9,2.8,3.2c0,0.3,0,0.4,0,0.6H364.7z M368.3,116.3c0-0.8-0.3-2-1.7-2
		c-1.2,0-1.8,1.1-1.9,2H368.3z"/>
	<path id="XMLID_199_" class="st0" d="M373.7,115.7c0-0.8,0-1.5-0.1-2.1h1.1l0,1.3h0.1c0.3-0.9,1-1.5,1.9-1.5c0.1,0,0.2,0,0.3,0v1.2
		c-0.1,0-0.3,0-0.4,0c-0.9,0-1.5,0.7-1.7,1.6c0,0.2-0.1,0.4-0.1,0.6v3.6h-1.2V115.7z"/>
</g>
</svg>
