<?xml version="1.0" encoding="utf-8"?>
<!-- Generator: Adobe Illustrator 19.0.0, SVG Export Plug-In . SVG Version: 6.00 Build 0)  -->
<svg version="1.1" id="Layer_1" xmlns="http://www.w3.org/2000/svg" xmlns:xlink="http://www.w3.org/1999/xlink" x="0px" y="0px"
	 viewBox="0 0 960 560" style="enable-background:new 0 0 960 560;" xml:space="preserve">
<style type="text/css">
	.st0{fill:#FFFFFF;}
	.st1{font-family:'MyriadPro-Regular';}
	.st2{font-size:14px;}
	.st3{letter-spacing:2;}
</style>
<g id="XMLID_1_">
	<g id="XMLID_170_">
		<path id="XMLID_174_" d="M270.2,178c-2.3,16.8-7.6,32.9-16.4,47.5c-0.3,0.4,0.4,0.8,0.6,0.4c8.9-14.6,14.2-30.8,16.5-47.6
			C271,177.7,270.3,177.5,270.2,178L270.2,178z"/>
	</g>
</g>
<g id="XMLID_2_">
	<g id="XMLID_164_">
		<path id="XMLID_168_" d="M284.8,181.5c-3.7,9-13.3,17.9-22.6,20.5c-0.2,0.1-0.3,0.3-0.2,0.6c3.9,6.9,7.4,15.3,13.9,20.2
			c4.9,3.7,12.8,5.1,15.9-1.4c0.2-0.4-0.4-0.8-0.6-0.4c-3.2,6.7-11.5,4.2-15.9,0.3c-2.6-2.3-4.6-5.2-6.4-8.1
			c-1.6-2.6-3.3-5.4-4.6-8.1c-1.4-3,0.2-2.7,2.6-3.9c7.8-3.9,15.4-11.2,18.7-19.3C285.7,181.3,284.9,181.1,284.8,181.5L284.8,181.5z
			"/>
	</g>
</g>
<g id="XMLID_4_">
	<g id="XMLID_158_">
		<path id="XMLID_162_" d="M309.1,219.1c5.1-3,7-8.9,9-14.2c3-8.2,5.5-16.6,7.5-25.2c0-0.2-0.1-0.4-0.3-0.5
			c-3.1-0.8-5.7,9.6-6.4,11.5c-2.8,7.7-4.8,15.9-4.7,24.1c0.1,3.7,0.1,9.9,4.7,10.9c5.1,1.2,8.7-4.4,9.9-8.4
			c0.1-0.5-0.6-0.7-0.7-0.2c-1.5,5.2-9.5,13-12.6,3.2c-1.1-3.5-0.6-8.3-0.2-11.9c0.9-8.4,3.7-16.5,7-24.2c0.4-1,1.8-5.1,2-2.1
			c0.1,1.6-0.9,3.7-1.4,5.3c-1,3.5-2,7-3.1,10.4c-2.2,6.8-4.4,16.7-11,20.5C308.3,218.7,308.7,219.3,309.1,219.1L309.1,219.1z"/>
	</g>
</g>
<g id="XMLID_5_">
	<g id="XMLID_151_">
		<path id="XMLID_156_" d="M339.4,211.3c-2.8,0.7-5.2,2.3-7,4.6c-1.6,2-3.5,5.6-2.5,8.3c0.7,2,2.5,2.2,4.2,1.1c2.9-1.9,4.6-6,5.6-9
			c-0.2,0-0.5,0-0.7,0c0.6,1.9-0.7,6.1,1.3,7.6c2,1.4,3.6-1.6,4.3-3c0.2-0.4-0.4-0.8-0.6-0.4c-0.3,0.7-1,2.2-1.6,2.5
			c-2.6,1.3-2.3-2.2-2.3-3.1c0-1.3,0.1-2.5-0.3-3.7c-0.1-0.4-0.6-0.3-0.7,0c-0.7,2.1-1.6,4.1-2.9,5.9c-0.6,0.9-3.9,5.6-5.5,1.7
			c-0.4-0.9,0-2.3,0.3-3.2c1.2-4.1,4.6-7.5,8.8-8.4C340.1,211.9,339.9,211.2,339.4,211.3L339.4,211.3z"/>
	</g>
</g>
<g id="XMLID_7_">
	<g id="XMLID_145_">
		<path id="XMLID_149_" d="M377.5,211.3c-2.8,0.7-5.2,2.3-7,4.6c-1.6,2-3.5,5.6-2.5,8.3c0.7,2,2.5,2.2,4.2,1.1c2.9-1.9,4.6-6,5.6-9
			c-0.2,0-0.5,0-0.7,0c0.6,2-0.9,6.1,1.2,7.5c2,1.3,3.7-1.5,4.4-3c0.2-0.4-0.4-0.8-0.6-0.4c-0.2,0.5-0.5,1-0.8,1.4
			c-0.6,1.2-1.6,1.3-3.1,0.2c-0.3-0.6-0.1-1.9,0-2.5c0.1-1.2,0.1-2.3-0.2-3.5c-0.1-0.4-0.6-0.3-0.7,0c-0.7,2.1-1.6,4.1-2.9,5.9
			c-0.6,0.9-3.9,5.6-5.5,1.7c-0.4-0.9,0-2.3,0.3-3.2c1.2-4.1,4.6-7.5,8.8-8.4C378.1,211.9,377.9,211.2,377.5,211.3L377.5,211.3z"/>
	</g>
</g>
<g id="XMLID_32_">
	<g id="XMLID_139_">
		<path id="XMLID_143_" d="M452.9,211.3c-2.8,0.7-5.2,2.3-7,4.6c-1.6,2-3.5,5.6-2.5,8.3c0.7,2,2.5,2.2,4.2,1.1c2.9-1.9,4.6-6,5.6-9
			c-0.2,0-0.5,0-0.7,0c0.6,2-0.9,6.1,1.2,7.5c2,1.3,3.7-1.5,4.4-3c0.2-0.4-0.4-0.8-0.6-0.4c-0.2,0.5-0.5,1-0.8,1.4
			c-0.6,1.2-1.6,1.3-3.1,0.2c-0.3-0.6-0.1-1.9,0-2.5c0.1-1.2,0.1-2.3-0.2-3.5c-0.1-0.4-0.6-0.3-0.7,0c-0.7,2.1-1.6,4.1-2.9,5.9
			c-0.6,0.9-3.9,5.6-5.5,1.7c-0.4-0.9,0-2.3,0.3-3.2c1.2-4.1,4.6-7.5,8.8-8.4C453.5,211.9,453.3,211.2,452.9,211.3L452.9,211.3z"/>
	</g>
</g>
<g id="XMLID_8_">
	<g id="XMLID_132_">
		<path id="XMLID_136_" d="M546.1,229.9c-3.4,0.8-6.2,2.8-8.2,5.6c-1.9,2.5-4.1,6.9-2.9,10.2c0.8,2.4,2.8,2.7,4.8,1.3
			c3.4-2.3,5.4-7.4,6.6-11.1c-0.2,0-0.5,0-0.7,0c0.7,2.4-1.1,7.6,1.4,9.2c2.4,1.6,4.3-2,5.1-3.6c0.2-0.4-0.4-0.8-0.6-0.4
			c-0.4,0.9-2.9,6.1-4.8,2c-0.3-0.7-0.1-2.3,0-3.1c0.1-1.5,0.1-2.9-0.3-4.3c-0.1-0.4-0.6-0.3-0.7,0c-0.8,2.6-1.9,5.1-3.4,7.3
			c-0.7,1.1-4.6,7-6.7,2.1c-0.5-1.1,0-2.9,0.3-4c1.5-5,5.3-9.3,10.4-10.5C546.8,230.5,546.6,229.8,546.1,229.9L546.1,229.9z"/>
	</g>
</g>
<g id="XMLID_19_">
	<g id="XMLID_126_">
		<path id="XMLID_130_" d="M303.1,211.3c-2.8,0.7-5.2,2.3-7,4.6c-1.6,2-3.5,5.6-2.5,8.3c0.7,2,2.5,2.2,4.2,1.1c2.9-1.9,4.6-6,5.6-9
			c-0.2,0-0.5,0-0.7,0c0.6,2-0.9,6.1,1.2,7.5c2,1.3,3.7-1.5,4.4-3c0.2-0.4-0.4-0.8-0.6-0.4c-0.2,0.5-0.5,1-0.8,1.4
			c-0.6,1.2-1.6,1.3-3.1,0.2c-0.3-0.6-0.1-1.9,0-2.5c0.1-1.2,0.1-2.3-0.2-3.5c-0.1-0.4-0.6-0.3-0.7,0c-0.7,2.1-1.6,4.1-2.9,5.9
			c-0.6,0.9-3.9,5.6-5.5,1.7c-0.4-0.9,0-2.3,0.3-3.2c1.2-4.1,4.6-7.5,8.8-8.4C303.8,211.9,303.6,211.2,303.1,211.3L303.1,211.3z"/>
	</g>
</g>
<g id="XMLID_6_">
	<g id="XMLID_120_">
		<path id="XMLID_124_" d="M347,213.1c0.4,1.6,0.6,3.3,0.7,4.9c0,0.5-0.4,3,0,3.3c-0.8-0.7,3.4-6.2,4-6.6c4.3-2.6,3.6,3.4,3.8,5.6
			c0.1,0.4,0.6,0.5,0.7,0.1c0.8-2,1.9-4,3.3-5.5c2-2.2,5.5-2.6,5.8,1c0.3,3.1-0.7,7.2-2.9,9.4c-0.3,0.3,0.2,0.9,0.5,0.5
			c2.4-2.4,5-10,2.2-12.9c-3.9-4.1-8.6,4.8-9.7,7.3c0.2,0,0.5,0.1,0.7,0.1c-0.3-2.2,0.6-7.2-3.3-7c-3.1,0.2-7.7,7.5-5.5,10
			c0.2,0.2,0.6,0.1,0.6-0.2c0.5-3.5,0.4-6.9-0.3-10.3C347.6,212.5,346.9,212.7,347,213.1L347,213.1z"/>
	</g>
</g>
<g id="XMLID_9_">
	<g id="XMLID_111_">
		<path id="XMLID_115_" d="M383.9,214.8c0,3,0,6,0,9.1c0,0.4,0.6,0.5,0.7,0.1c0.6-1.7,4-11.9,7.2-9c1.2,1.1,1,3.6,0.9,5
			c-0.1,1.8-0.4,3.6-0.9,5.4c-0.1,0.5,0.6,0.7,0.7,0.2c0.8-2.4,1.2-5.1,0.9-7.7c-0.1-1.3-0.4-3.3-1.8-3.9c-4.2-1.8-6.9,7.4-7.8,9.8
			c0.2,0,0.5,0.1,0.7,0.1c0-3,0-6,0-9.1C384.7,214.3,383.9,214.3,383.9,214.8L383.9,214.8z"/>
	</g>
</g>
<g id="XMLID_11_">
	<g id="XMLID_104_">
		<path id="XMLID_108_" d="M403.5,212.9c-3.2,1.1-6.8,4.1-8,7.3c-0.6,1.7-0.5,5,2,5c3,0,5.8-5.7,6.7-7.8c2.8-6.1,4.5-13,6.5-19.4
			c0.2-0.7,3.7-11.1,1.9-10.7c-1.2,0.3-2.2,6.7-2.4,7.6c-1.4,5.1-2.8,10.2-3.9,15.3c-1,4.2-2.3,9.7,0.4,13.5c2.2,3.2,6,2.7,7-1.1
			c0.1-0.5-0.6-0.7-0.7-0.2c-2.2-0.3-4.4-0.6-6.5-0.9c-0.3-1.2-0.5-2.4-0.5-3.6c0-1.1,0-2.1,0.2-3.2c0.2-1.1,0.4-2.3,0.7-3.4
			c0.7-3.2,1.5-6.4,2.3-9.6c0.9-3.3,1.8-6.7,2.7-10c0.3-1.1,1.5-5.5,0.5-2.6c-2.2,6.4-3.8,13.1-5.9,19.6c-1.4,4.3-2.6,8.7-5.3,12.4
			c-1.4,1.9-1.5,2.6-3.6,1.6c-1.7-0.1-2.1-0.7-1.2-2c0.3-1.2,0.8-2.2,1.7-3c1.5-1.8,3.5-3.4,5.7-4.2
			C404.1,213.5,403.9,212.8,403.5,212.9L403.5,212.9z"/>
	</g>
</g>
<g id="XMLID_18_">
	<g id="XMLID_97_">
		<path id="XMLID_101_" d="M425,215.5c-5.3-2.3-11.3,2.8-10,8.6c0.4,1.9,1.7,2.2,3.4,1.5c2.6-1.2,4.2-3.7,5-6.4
			c-0.2,0-0.5-0.1-0.7-0.1c-0.1,4.6,5.1,7,7.2,2.2c0.2-0.4-0.5-0.8-0.6-0.4c-0.5,1.8-2.1,2.3-4.6,1.6c-0.9-1-1.3-2.1-1.1-3.5
			c0-0.4-0.6-0.5-0.7-0.1c-0.4,1.5-1.1,2.9-2.1,4c-1.3,1.5-4.8,3.4-4.8-0.5c-0.1-4.6,4.6-8.2,8.9-6.3
			C425,216.4,425.4,215.7,425,215.5L425,215.5z"/>
	</g>
</g>
<g id="XMLID_25_">
	<g id="XMLID_91_">
		<path id="XMLID_95_" d="M429,222.8c4.1-7,7.2-14.7,9.7-22.4c0.9-2.7,4.3-10.2,1.9-12.9c-0.1-0.1-0.3-0.1-0.5-0.1
			c-2.3,1.2-3.2,5.2-3.9,7.4c-1.7,5.2-3,10.7-3.6,16.2c-0.4,4-1,10.8,3.6,12.9c2.7,1.2,5-0.6,5.7-3.2c0.1-0.5-0.6-0.7-0.7-0.2
			c-4.6,2.7-7.1,2.1-7.7-1.8c-0.3-1.7-0.4-3.5-0.3-5.3c0.1-1.8,0.3-3.6,0.6-5.3c0.5-3.1,1.2-6.2,2-9.3c0.7-2.6,1.5-5.3,2.6-7.8
			c0.5-1,0.9-3.1,2-1.8c0.3,0.3-0.2,2.5-0.2,2.5c-1.5,10.5-6.6,21.6-11.9,30.7C428.1,222.8,428.8,223.2,429,222.8L429,222.8z"/>
	</g>
</g>
<g id="XMLID_39_">
	<g id="XMLID_85_">
		<path id="XMLID_89_" d="M460.2,213.1c-0.2,3.5-0.3,7.1-0.5,10.6c0,0.4,0.7,0.5,0.7,0.1c0.4-2,0.8-4,1.4-6c0.4-1.2,2.7-7.9,4.2-4.8
			c0.6,1.4,0.1,4.2,0.1,5.7c0,1.7-0.1,3.3-0.1,5c0,0.4,0.6,0.5,0.7,0.1c0.7-3.4,1.5-7.1,3.3-10.1c1.5-2.4,4.3-4.5,4.6-0.2
			c0.4,5.8-1.2,12-2.9,17.5c-0.1,0.5,0.6,0.7,0.7,0.2c1.4-4.6,2.4-9.3,2.8-14.1c0.1-1.5,0.8-5.9-1-7c-4.1-2.5-7.7,9.4-7.8,11.2
			c-0.1,1.2-0.1,2.7,0.2,0.7c0.1-0.8,0-1.6,0-2.4c0-2,0.1-4-0.1-5.9c-0.1-1.3,0-2.4-1.5-2.4c-2.2-0.1-3.4,3.9-3.9,5.4
			c-0.2,0.5-1.3,6.2-1.6,6.2c1.6-0.4,1-8.4,1.1-9.8C461,212.6,460.3,212.6,460.2,213.1L460.2,213.1z"/>
	</g>
</g>
<g id="XMLID_10_">
	<g id="XMLID_79_">
		<path id="XMLID_83_" d="M448.3,267c7.6-0.9,13.5-6.4,18.2-12.1c6.7-8.3,11.7-18,15.8-27.7c8.4-19.6,15.3-41.6,15.9-63.1
			c0-0.5-0.7-0.5-0.8,0c-1.9,38.1-3.6,76.2-5.3,114.3c0,0.5,0.7,0.5,0.8,0c0.9-19.3,1.7-38.6,2.6-57.9c0.4-9.8,0.9-19.6,1.4-29.4
			c0.2-4.6,0.4-9.2,0.7-13.8c0.1-2.2,0.2-4.5,0.3-6.7c0-1,0.2-2.2,0.2-3.3c0-0.5-0.1-3.7-0.7-1.6c-0.6,2.2-0.4,5-0.7,7.3
			c-0.4,3.3-1,6.5-1.6,9.8c-1.2,6.4-2.8,12.8-4.7,19.1c-3.9,13.4-8.9,26.7-15.7,39c-5.5,9.9-14,23.9-26.5,25.4
			C447.8,266.3,447.8,267,448.3,267L448.3,267z"/>
	</g>
</g>
<g id="XMLID_12_">
	<g id="XMLID_73_">
		<path id="XMLID_77_" d="M468.3,240.6c18-8.3,35.6-17.4,52.9-27.2c0.4-0.2,0-0.9-0.4-0.6c-17.2,9.8-34.9,18.9-52.9,27.2
			C467.5,240.2,467.9,240.8,468.3,240.6L468.3,240.6z"/>
	</g>
</g>
<g id="XMLID_103_">
	<g id="XMLID_67_">
		<path id="XMLID_71_" d="M508.8,233.9c-3.7-0.4-7.1,1.7-7,5.7c0,2,1.1,3.3,2.2,4.9c2.7,3.8,4.3,7.2,2,11.8c-1.2,2.4-3.2,4.2-5.1,6
			c-0.4,0.3,0.2,0.9,0.5,0.5c3.4-3.2,6.9-7,6.5-12c-0.2-2.3-1.2-3.7-2.3-5.6c-1.4-2.3-0.6-0.3-2-3.4c-1.9-4.1,0.5-7.6,5.3-7.1
			C509.3,234.7,509.3,234,508.8,233.9L508.8,233.9z"/>
	</g>
</g>
<g id="XMLID_110_">
	<g id="XMLID_61_">
		<path id="XMLID_65_" d="M511.8,242.8c-0.1,1.7-1.6,14.9,3.6,11.4c2.2-1.5,3.5-4.9,4.5-7.2c0.4-0.8,0.7-2.5,1.3-3.1
			c0.5-0.5-0.3-0.3,0.1,0.5c0.3,0.7,0.4,1.4,0.6,2.1c1.1,3.9,3.1,9.1,6.9,4c3.9-5.2,5.8-13.7,5.4-20.1c0-0.5-0.8-0.5-0.8,0
			c0.4,5.7-1.3,12.6-4,17.7c-0.8,1.5-1.5,3.1-3.4,3.3c-2.1,0.2-2.4-1.8-2.9-3.6c-0.5-1.7-0.8-3.5-1.6-5.1c-0.2-0.3-0.6-0.2-0.7,0.1
			c-0.8,2.6-2,5.3-3.4,7.6c-1,1.7-2.2,4.5-4.6,2c-1.5-1.5-0.2-7.6-0.2-9.8C512.5,242.3,511.8,242.3,511.8,242.8L511.8,242.8z"/>
	</g>
</g>
<g id="XMLID_117_">
	<g id="XMLID_55_">
		<path id="XMLID_59_" d="M552.8,239.4c6.6-2.9,9.8-13.9,12-20.1c1.5-4.2,2.8-8.6,3.4-13c0.2-1.7,0.8-4.7-0.7-6
			c-0.2-0.1-0.5-0.2-0.6,0.1c-2.9,6.6-5.3,13.4-6.6,20.5c-1,5.5-2.4,13.9,0.1,19.2c3.2,7.2,10-1.1,10.6-5.4c0.1-0.5-0.7-0.7-0.7-0.2
			c-0.4,2.6-1.4,5.4-3.9,6.7c-5.3,2.7-5.9-3.8-6.1-7.6c-0.3-5.7,0.4-11.4,1.7-16.9c0.5-2,5.4-15.1,5.4-15.2c1.1,1.2-0.1,5.5-0.3,6.7
			c-1.1,6.1-3.2,12.1-5.7,17.8c-1.8,4.2-4.4,10.7-8.9,12.7C552,238.9,552.4,239.6,552.8,239.4L552.8,239.4z"/>
	</g>
</g>
<g id="XMLID_118_">
	<g id="XMLID_49_">
		<path id="XMLID_53_" d="M551.6,221.3c7.9-3.1,15.5-6.8,22.8-11.1c0.4-0.2,0-0.9-0.4-0.6c-7.3,4.3-14.8,7.9-22.7,11
			C550.9,220.8,551.1,221.5,551.6,221.3L551.6,221.3z"/>
	</g>
</g>
<g id="XMLID_119_">
	<g id="XMLID_43_">
		<path id="XMLID_47_" d="M576.9,201.3c-0.1,6.4-0.5,12.8-1.3,19.2c-0.4,3.7-1.5,7.6-1.6,11.3c0,0.6-0.7,3.7,0.3,2.4
			c0.5-0.6,0.5-2.1,0.7-2.9c0.6-2.4,6.3-15.3,9.1-9c0.9,2.1-0.1,5.3,0.1,7.5c0.3,2.7,1.4,3.3,3.7,1.7c5.9-4.3,8.5-14.1,9.9-20.8
			c0.1-0.5-0.6-0.7-0.7-0.2c-0.7,3.3-1.6,6.5-2.9,9.7c-1.3,3.3-3.3,8.7-6.5,10.6c-4.6,2.7-1.8-6.7-3-9.1c-1-2.1-3.2-1.9-5-0.6
			c-4.2,2.9-5.6,10.1-6.4,14.7c-0.1,0.5,0.6,0.7,0.7,0.2c2.1-11.4,3.3-22.9,3.6-34.5C577.6,200.8,576.9,200.8,576.9,201.3
			L576.9,201.3z"/>
	</g>
</g>
<g id="XMLID_137_">
	<g id="XMLID_36_">
		<path id="XMLID_41_" d="M597.2,210.2c-2.5,3.1-4.9,6.4-6.1,10.2c-0.6,1.8-1,4.3,0.2,6c3,4,9.4-1.5,11.6-3.7
			c0.3-0.3-0.2-0.9-0.5-0.5c-1.8,1.8-8.6,7.7-10.8,3.2c-0.8-1.7-0.2-4,0.5-5.6c1.3-3.4,3.4-6.3,5.7-9.1
			C598,210.4,597.5,209.8,597.2,210.2L597.2,210.2z"/>
	</g>
</g>
<g id="XMLID_155_">
	<g id="XMLID_29_">
		<path id="XMLID_34_" d="M596.9,202.2c-0.4,1.1-0.9,3.7,0.8,4c1.6,0.3,2-2.4,2-3.5c0-0.5-0.7-0.5-0.8,0c0,0.6-0.3,3-1.2,2.7
			c-1-0.3-0.4-2.4-0.2-3C597.8,202,597.1,201.8,596.9,202.2L596.9,202.2z"/>
	</g>
</g>
<text id="XMLID_3_" transform="matrix(1 0 0 1 499.7544 275.2106)" class="st0 st1 st2 st3">classical dancer</text>
</svg>
